<?xml version="1.0" encoding="UTF-8" standalone="no"?>
<svg
   xmlns:dc="http://purl.org/dc/elements/1.1/"
   xmlns:cc="http://creativecommons.org/ns#"
   xmlns:rdf="http://www.w3.org/1999/02/22-rdf-syntax-ns#"
   xmlns:svg="http://www.w3.org/2000/svg"
   xmlns="http://www.w3.org/2000/svg"
   width="0.99659717cm"
   height="0.99659699cm"
   viewBox="0 0 9.9659712 9.9659701"
   version="1.1"
   id="svg8">
  <defs
     id="defs2">
    <pattern
       id="EMFhbasepattern"
       patternUnits="userSpaceOnUse"
       width="6"
       height="6"
       x="0"
       y="0" />
    <pattern
       id="EMFhbasepattern-7"
       patternUnits="userSpaceOnUse"
       width="6"
       height="6"
       x="0"
       y="0" />
    <pattern
       id="EMFhbasepattern-1"
       patternUnits="userSpaceOnUse"
       width="6"
       height="6"
       x="0"
       y="0" />
    <pattern
       id="EMFhbasepattern-5"
       patternUnits="userSpaceOnUse"
       width="6"
       height="6"
       x="0"
       y="0" />
    <pattern
       id="EMFhbasepattern-6"
       patternUnits="userSpaceOnUse"
       width="6"
       height="6"
       x="0"
       y="0" />
    <pattern
       id="EMFhbasepattern-4"
       patternUnits="userSpaceOnUse"
       width="6"
       height="6"
       x="0"
       y="0" />
  </defs>
  <metadata
     id="metadata5">
    <rdf:RDF>
      <cc:Work
         rdf:about="">
        <dc:format>image/svg+xml</dc:format>
        <dc:type
           rdf:resource="http://purl.org/dc/dcmitype/StillImage" />
        <dc:title></dc:title>
      </cc:Work>
    </rdf:RDF>
  </metadata>
  <g
     id="layer1"
     transform="translate(-27.930948,-241.87324)">
    <path
       style="fill:#003049;fill-opacity:1;fill-rule:nonzero;stroke:none;stroke-width:0.264583"
       d="m 35.692059,242.66699 c -0.79375,-0.44097 -1.763889,-0.79375 -2.822222,-0.79375 0,0 0,0 0,0 -0.970139,0 -1.940278,0.35278 -2.734028,0.79375 2.734028,2.82222 2.734028,2.82222 2.734028,2.82222 z"
       id="path161" />
    <path
       style="fill:#003049;fill-opacity:1;fill-rule:nonzero;stroke:none;stroke-width:0.264583"
       d="m 28.724698,244.1663 c -0.529167,0.70555 -0.79375,1.67569 -0.79375,2.73402 0,0.97014 0.264583,1.94028 0.79375,2.73403 2.734028,-2.73403 2.734028,-2.73403 2.734028,-2.73403 z"
       id="path163" />
    <path
       style="fill:#003049;fill-opacity:1;fill-rule:nonzero;stroke:none;stroke-width:0.264583"
       d="m 30.135809,251.04546 c 0.79375,0.52917 1.763889,0.79375 2.734028,0.79375 1.058333,0 2.028472,-0.26458 2.822222,-0.79375 -2.822222,-2.73403 -2.822222,-2.73403 -2.822222,-2.73403 z"
       id="path165" />
    <path
       style="fill:#003049;fill-opacity:1;fill-rule:nonzero;stroke:none;stroke-width:0.264583"
       d="m 34.280948,246.90032 c 2.822222,2.73403 2.822222,2.73403 2.822222,2.73403 0.529167,-0.79375 0.79375,-1.76389 0.79375,-2.73403 0,-1.05833 -0.264583,-2.02847 -0.79375,-2.73402 z"
       id="path167" />
    <path
       style="fill:#ffffff;fill-opacity:1;fill-rule:nonzero;stroke:none;stroke-width:0.264583"
       d="m 37.10317,244.1663 c -0.440972,-0.61737 -0.881944,-1.05834 -1.411111,-1.49931 -2.822222,2.82222 -2.822222,2.82222 -2.822222,2.82222 -2.734028,-2.82222 -2.734028,-2.82222 -2.734028,-2.82222 -0.529167,0.44097 -1.058333,0.88194 -1.411111,1.49931 2.734028,2.73402 2.734028,2.73402 2.734028,2.73402 -2.734028,2.73403 -2.734028,2.73403 -2.734028,2.73403 0.352778,0.52917 0.881944,1.05833 1.411111,1.41111 2.734028,-2.73403 2.734028,-2.73403 2.734028,-2.73403 2.822222,2.73403 2.822222,2.73403 2.822222,2.73403 0.529167,-0.35278 0.970139,-0.88194 1.411111,-1.41111 -2.822222,-2.73403 -2.822222,-2.73403 -2.822222,-2.73403 z"
       id="path169" />
  </g>
</svg>
