<?xml version="1.0" encoding="UTF-8" standalone="no"?>
<svg
   xmlns:dc="http://purl.org/dc/elements/1.1/"
   xmlns:cc="http://creativecommons.org/ns#"
   xmlns:rdf="http://www.w3.org/1999/02/22-rdf-syntax-ns#"
   xmlns:svg="http://www.w3.org/2000/svg"
   xmlns="http://www.w3.org/2000/svg"
   width="1.0054166cm"
   height="0.99659801cm"
   viewBox="0 0 10.054166 9.9659802"
   version="1.1"
   id="svg8">
  <defs
     id="defs2">
    <pattern
       id="EMFhbasepattern"
       patternUnits="userSpaceOnUse"
       width="6"
       height="6"
       x="0"
       y="0" />
    <pattern
       id="EMFhbasepattern-7"
       patternUnits="userSpaceOnUse"
       width="6"
       height="6"
       x="0"
       y="0" />
    <pattern
       id="EMFhbasepattern-1"
       patternUnits="userSpaceOnUse"
       width="6"
       height="6"
       x="0"
       y="0" />
    <pattern
       id="EMFhbasepattern-5"
       patternUnits="userSpaceOnUse"
       width="6"
       height="6"
       x="0"
       y="0" />
    <pattern
       id="EMFhbasepattern-6"
       patternUnits="userSpaceOnUse"
       width="6"
       height="6"
       x="0"
       y="0" />
    <pattern
       id="EMFhbasepattern-4"
       patternUnits="userSpaceOnUse"
       width="6"
       height="6"
       x="0"
       y="0" />
    <pattern
       id="EMFhbasepattern-2"
       patternUnits="userSpaceOnUse"
       width="6"
       height="6"
       x="0"
       y="0" />
    <pattern
       id="EMFhbasepattern-9"
       patternUnits="userSpaceOnUse"
       width="6"
       height="6"
       x="0"
       y="0" />
    <pattern
       id="EMFhbasepattern-47"
       patternUnits="userSpaceOnUse"
       width="6"
       height="6"
       x="0"
       y="0" />
  </defs>
  <metadata
     id="metadata5">
    <rdf:RDF>
      <cc:Work
         rdf:about="">
        <dc:format>image/svg+xml</dc:format>
        <dc:type
           rdf:resource="http://purl.org/dc/dcmitype/StillImage" />
        <dc:title></dc:title>
      </cc:Work>
    </rdf:RDF>
  </metadata>
  <g
     id="layer1"
     transform="translate(-5.92171,-248.11771)">
    <path
       style="fill:#ffffff;fill-opacity:1;fill-rule:nonzero;stroke:none;stroke-width:0.264583"
       d="m 10.948793,250.58716 c 0,-2.46945 0,-2.46945 0,-2.46945 -0.881945,0 -1.763889,0.26459 -2.469445,0.70556 0,1.76389 0,1.76389 0,1.76389 z"
       id="path218" />
    <path
       style="fill:#003049;fill-opacity:1;fill-rule:nonzero;stroke:none;stroke-width:0.264583"
       d="m 8.479348,248.82327 c -0.79375,0.44097 -1.411111,1.05833 -1.852083,1.76389 1.852083,0 1.852083,0 1.852083,0 z"
       id="path220" />
    <path
       style="fill:#003049;fill-opacity:1;fill-rule:nonzero;stroke:none;stroke-width:0.264583"
       d="M 10.948793,250.58716 H 8.479348 v 2.55764 h 2.469445 z"
       id="path222" />
    <path
       style="fill:#ffffff;fill-opacity:1;fill-rule:nonzero;stroke:none;stroke-width:0.264583"
       d="m 8.479348,250.58716 c -1.852083,0 -1.852083,0 -1.852083,0 -0.440972,0.79375 -0.705555,1.5875 -0.705555,2.55764 2.557638,0 2.557638,0 2.557638,0 z"
       id="path224" />
    <path
       style="fill:#ffffff;fill-opacity:1;fill-rule:nonzero;stroke:none;stroke-width:0.264583"
       d="m 15.270321,250.58716 c -0.440973,-0.70556 -1.058334,-1.32292 -1.852084,-1.76389 0,1.76389 0,1.76389 0,1.76389 z"
       id="path226" />
    <path
       style="fill:#003049;fill-opacity:1;fill-rule:nonzero;stroke:none;stroke-width:0.264583"
       d="m 13.418237,250.58716 c 0,-1.76389 0,-1.76389 0,-1.76389 -0.705555,-0.44097 -1.5875,-0.70556 -2.469444,-0.70556 0,2.46945 0,2.46945 0,2.46945 z"
       id="path228" />
    <path
       style="fill:#003049;fill-opacity:1;fill-rule:nonzero;stroke:none;stroke-width:0.264583"
       d="m 13.418237,250.58716 c 0,2.55764 0,2.55764 0,2.55764 2.557639,0 2.557639,0 2.557639,0 0,-0.97014 -0.264583,-1.76389 -0.705555,-2.55764 z"
       id="path230" />
    <path
       style="fill:#ffffff;fill-opacity:1;fill-rule:nonzero;stroke:none;stroke-width:0.264583"
       d="m 10.948793,253.1448 h 2.469444 v -2.55764 h -2.469444 z"
       id="path232" />
    <path
       style="fill:#ffffff;fill-opacity:1;fill-rule:nonzero;stroke:none;stroke-width:0.264583"
       d="m 8.479348,253.1448 v 2.46944 h 2.469445 v -2.46944 z"
       id="path234" />
    <path
       style="fill:#003049;fill-opacity:1;fill-rule:nonzero;stroke:none;stroke-width:0.264583"
       d="m 8.479348,253.1448 c -2.557638,0 -2.557638,0 -2.557638,0 0,0.88194 0.264583,1.76389 0.705555,2.46944 1.852083,0 1.852083,0 1.852083,0 z"
       id="path236" />
    <path
       style="fill:#003049;fill-opacity:1;fill-rule:nonzero;stroke:none;stroke-width:0.264583"
       d="m 8.479348,255.61424 c 0,1.85209 0,1.85209 0,1.85209 0.705556,0.35277 1.5875,0.61736 2.469445,0.61736 0,-2.46945 0,-2.46945 0,-2.46945 z"
       id="path238" />
    <path
       style="fill:#ffffff;fill-opacity:1;fill-rule:nonzero;stroke:none;stroke-width:0.264583"
       d="m 6.627265,255.61424 c 0.440972,0.79375 1.058333,1.41111 1.852083,1.85209 0,-1.85209 0,-1.85209 0,-1.85209 z"
       id="path240" />
    <path
       style="fill:#ffffff;fill-opacity:1;fill-rule:nonzero;stroke:none;stroke-width:0.264583"
       d="m 13.418237,255.61424 c 1.852084,0 1.852084,0 1.852084,0 0.440972,-0.70555 0.705555,-1.5875 0.705555,-2.46944 -2.557639,0 -2.557639,0 -2.557639,0 z"
       id="path242" />
    <path
       style="fill:#003049;fill-opacity:1;fill-rule:nonzero;stroke:none;stroke-width:0.264583"
       d="m 10.948793,255.61424 h 2.469444 v -2.46944 h -2.469444 z"
       id="path244" />
    <path
       style="fill:#003049;fill-opacity:1;fill-rule:nonzero;stroke:none;stroke-width:0.264583"
       d="m 13.418237,257.46633 c 0.79375,-0.44098 1.411111,-1.05834 1.852084,-1.85209 -1.852084,0 -1.852084,0 -1.852084,0 z"
       id="path246" />
  </g>
</svg>
