<?xml version="1.0" encoding="UTF-8" standalone="no"?>
<svg
   xmlns:dc="http://purl.org/dc/elements/1.1/"
   xmlns:cc="http://creativecommons.org/ns#"
   xmlns:rdf="http://www.w3.org/1999/02/22-rdf-syntax-ns#"
   xmlns:svg="http://www.w3.org/2000/svg"
   xmlns="http://www.w3.org/2000/svg"
   width="0.99659717cm"
   height="0.99659801cm"
   viewBox="0 0 9.9659712 9.9659802"
   version="1.1"
   id="svg8">
  <defs
     id="defs2">
    <pattern
       id="EMFhbasepattern"
       patternUnits="userSpaceOnUse"
       width="6"
       height="6"
       x="0"
       y="0" />
    <pattern
       id="EMFhbasepattern-7"
       patternUnits="userSpaceOnUse"
       width="6"
       height="6"
       x="0"
       y="0" />
    <pattern
       id="EMFhbasepattern-1"
       patternUnits="userSpaceOnUse"
       width="6"
       height="6"
       x="0"
       y="0" />
    <pattern
       id="EMFhbasepattern-5"
       patternUnits="userSpaceOnUse"
       width="6"
       height="6"
       x="0"
       y="0" />
    <pattern
       id="EMFhbasepattern-6"
       patternUnits="userSpaceOnUse"
       width="6"
       height="6"
       x="0"
       y="0" />
    <pattern
       id="EMFhbasepattern-4"
       patternUnits="userSpaceOnUse"
       width="6"
       height="6"
       x="0"
       y="0" />
    <pattern
       id="EMFhbasepattern-2"
       patternUnits="userSpaceOnUse"
       width="6"
       height="6"
       x="0"
       y="0" />
  </defs>
  <metadata
     id="metadata5">
    <rdf:RDF>
      <cc:Work
         rdf:about="">
        <dc:format>image/svg+xml</dc:format>
        <dc:type
           rdf:resource="http://purl.org/dc/dcmitype/StillImage" />
        <dc:title></dc:title>
      </cc:Work>
    </rdf:RDF>
  </metadata>
  <g
     id="layer1"
     transform="translate(-34.547106,-248.34765)">
    <path
       style="fill:#d62828;fill-opacity:1;fill-rule:nonzero;stroke:none;stroke-width:0.264583"
       d="m 39.485995,248.34765 c -1.322917,0 -2.645833,0.52917 -3.527778,1.41112 7.055556,7.05555 7.055556,7.05555 7.055556,7.05555 0.970139,-0.88194 1.499305,-2.11667 1.499305,-3.52778 0,-2.73402 -2.204861,-4.93889 -5.027083,-4.93889 z"
       id="path186" />
    <path
       style="fill:#fca311;fill-opacity:1;fill-rule:nonzero;stroke:none;stroke-width:0.264583"
       d="m 34.547106,253.28654 c 0,2.82223 2.204861,5.02709 4.938889,5.02709 1.411111,0 2.645833,-0.52917 3.527778,-1.49931 -7.055556,-7.05555 -7.055556,-7.05555 -7.055556,-7.05555 -0.881944,0.97013 -1.411111,2.20486 -1.411111,3.52777 z"
       id="path188" />
  </g>
</svg>
